<?xml version="1.0" standalone="no"?>
<!DOCTYPE svg PUBLIC "-//W3C//DTD SVG 20010904//EN"
 "http://www.w3.org/TR/2001/REC-SVG-20010904/DTD/svg10.dtd">
<svg version="1.0" xmlns="http://www.w3.org/2000/svg"
 width="640.000000pt" height="640.000000pt" viewBox="0 0 640.000000 640.000000"
 preserveAspectRatio="xMidYMid meet">

<g transform="translate(0.000000,640.000000) scale(0.100000,-0.100000)"
fill="#000000" stroke="none">
<path d="M3775 4799 c6 -9 45 -8 45 2 0 4 -11 7 -25 7 -13 0 -22 -4 -20 -9z"/>
<path d="M3570 4770 c-12 -8 -9 -10 12 -10 15 0 30 5 33 10 8 13 -25 13 -45 0z"/>
<path d="M3740 4715 c0 -8 5 -15 10 -15 6 0 10 7 10 15 0 8 -4 15 -10 15 -5 0
-10 -7 -10 -15z"/>
<path d="M4000 4611 c8 -5 18 -7 24 -4 5 3 6 1 2 -6 -4 -6 -12 -9 -17 -6 -5 4
-9 2 -9 -4 0 -5 5 -13 10 -16 6 -3 10 -1 10 5 0 6 5 8 10 5 6 -4 8 -11 5 -16
-3 -5 0 -7 7 -4 8 3 14 -4 14 -21 2 -25 1 -25 -18 -7 -17 16 -21 16 -28 2 -7
-11 -22 -15 -57 -12 -26 1 -55 0 -63 -4 -40 -16 -171 -18 -181 -2 -5 9 -37 10
-113 6 -63 -3 -108 -2 -111 4 -10 16 -78 46 -117 52 -21 3 -51 2 -68 -3 -18
-5 -44 -4 -66 2 -29 8 -45 6 -73 -6 -20 -9 -52 -18 -71 -20 -19 -2 -55 -11
-79 -20 -24 -9 -51 -16 -60 -16 -9 0 -28 -7 -44 -15 -22 -11 -29 -12 -39 -1
-9 9 -21 10 -43 3 -42 -12 -110 -137 -107 -194 2 -21 7 -39 12 -41 6 -2 10 -9
10 -16 0 -7 16 -18 35 -26 29 -11 34 -18 30 -38 -2 -13 -7 -27 -11 -31 -4 -3
-4 2 -1 11 5 15 4 16 -13 5 -11 -6 -16 -13 -11 -15 6 -2 8 -9 5 -17 -3 -7 -1
-16 5 -20 30 -18 -3 -85 -41 -85 -22 0 -30 -27 -15 -50 6 -11 15 -20 18 -20
18 0 19 -56 2 -96 -17 -42 -30 -50 -70 -45 -20 3 -53 -18 -53 -34 0 -8 -9 -20
-21 -29 -20 -13 -20 -14 -2 -19 12 -3 9 -5 -9 -6 -16 0 -28 -5 -28 -10 0 -13
-108 -54 -125 -47 -8 3 -15 1 -15 -4 0 -5 -18 -9 -39 -8 -22 0 -44 -3 -50 -6
-6 -4 -11 -2 -11 3 0 6 9 11 20 11 11 0 29 9 40 20 24 24 25 30 4 30 -11 0
-14 5 -10 16 5 12 0 15 -22 12 -19 -2 -27 -9 -27 -23 0 -13 -7 -20 -20 -20
-11 -1 -37 -7 -58 -15 -39 -15 -50 -35 -45 -80 2 -19 -2 -26 -19 -28 -24 -3
-33 -32 -10 -32 18 0 94 29 78 30 -8 0 -11 3 -8 7 4 3 2 12 -4 19 -15 18 -3
64 16 64 8 0 15 -7 15 -15 0 -8 -7 -15 -15 -15 -8 0 -15 -5 -15 -10 0 -6 10
-8 23 -6 52 12 87 10 87 -5 0 -5 -5 -7 -11 -3 -6 3 -14 2 -18 -3 -3 -5 -16
-16 -29 -25 l-23 -16 30 -4 c24 -4 28 -2 20 9 -8 9 -7 14 4 19 9 3 20 3 26 0
5 -4 12 -2 16 4 3 5 13 10 21 10 22 0 7 -19 -23 -31 -14 -5 -23 -12 -20 -16 9
-9 137 -9 137 0 0 13 37 7 50 -8 9 -11 9 -15 1 -15 -6 0 -17 -11 -23 -25 -6
-14 -19 -25 -28 -25 -24 0 -32 -11 -19 -27 15 -17 29 -17 29 2 0 20 17 19 29
-2 7 -13 12 -14 23 -6 10 8 16 7 26 -3 7 -8 10 -14 7 -14 -3 0 3 -9 13 -20 12
-13 25 -18 35 -14 10 3 17 1 17 -5 0 -14 37 -15 45 -1 3 6 18 10 33 10 23 0
27 -5 29 -29 2 -25 -2 -29 -26 -33 -21 -3 -28 -1 -24 9 3 7 -2 13 -10 13 -26
0 -47 -12 -41 -22 4 -6 3 -13 -2 -17 -5 -3 -15 -16 -22 -28 -10 -19 -10 -23 3
-23 8 0 15 7 15 16 0 9 5 12 12 8 18 -11 62 -11 70 1 9 13 44 -8 40 -24 -1 -6
2 -11 8 -11 5 0 10 7 10 15 0 8 5 15 10 15 6 0 10 -4 10 -10 0 -5 8 -10 18
-10 13 0 14 -2 3 -9 -9 -6 -10 -10 -2 -16 14 -8 43 13 35 26 -3 5 4 9 15 9 14
0 21 -8 23 -27 2 -22 9 -11 29 50 15 42 23 77 19 77 -5 0 -11 -6 -13 -12 -4
-10 -8 -10 -14 -2 -5 8 -24 9 -58 3 -78 -12 -85 -11 -85 12 0 16 5 20 20 16
15 -4 20 -1 18 10 -2 9 3 18 10 20 6 3 12 -3 12 -12 0 -13 6 -16 25 -13 14 3
25 1 25 -3 0 -16 77 -10 91 7 16 20 69 47 154 79 36 13 78 33 93 43 36 24 99
52 117 52 8 0 30 14 48 30 19 17 41 30 50 30 8 0 55 18 105 40 49 22 97 40
106 40 9 0 16 4 16 10 0 5 14 16 30 25 17 9 29 11 28 6 -2 -5 2 -9 7 -10 6 -1
10 5 10 12 0 6 9 20 20 29 28 24 3 23 -45 -2 -42 -21 -90 -27 -90 -10 0 6 15
10 33 11 31 0 31 1 7 10 -13 6 -26 11 -28 13 -2 3 15 48 24 64 3 5 148 -36
208 -59 31 -11 70 -32 86 -45 17 -14 35 -22 41 -18 7 4 9 3 5 -4 -3 -5 13 -25
36 -44 23 -18 39 -28 35 -21 -4 6 -3 14 3 18 5 3 10 -1 10 -9 0 -9 5 -16 10
-16 6 0 10 -7 10 -15 0 -8 4 -15 8 -15 5 0 18 -9 29 -20 18 -16 22 -17 27 -4
3 9 1 12 -4 9 -6 -3 -10 -1 -10 4 0 6 -7 11 -15 11 -8 0 -15 7 -15 15 0 7 -8
19 -17 24 -16 9 -16 10 4 11 12 0 25 5 28 10 4 6 -7 10 -24 10 -17 0 -31 5
-31 11 0 8 -5 7 -15 -1 -22 -18 -29 -6 -14 22 7 12 12 30 11 38 -1 10 1 11 4
2 3 -6 9 -10 14 -7 4 3 29 6 55 7 49 1 73 -15 54 -38 -13 -16 -1 -23 52 -32
31 -5 44 -13 51 -31 7 -20 6 -23 -11 -18 -12 3 -22 -1 -25 -9 -3 -8 -15 -14
-26 -14 -13 0 -18 -4 -15 -11 4 -6 13 -8 21 -5 7 3 16 1 19 -3 3 -5 -2 -12
-10 -15 -8 -3 -14 -11 -13 -18 2 -7 -5 -12 -14 -12 -27 3 -21 -11 17 -41 21
-15 43 -24 52 -21 8 4 21 2 28 -4 25 -21 45 0 45 46 0 41 -2 44 -27 44 -27 -1
-27 -1 -8 -16 19 -14 19 -14 -4 -11 -32 5 -43 35 -20 58 14 14 16 24 9 48 -5
18 -5 31 0 31 5 0 10 -12 12 -27 3 -28 28 -45 28 -19 0 9 -6 16 -12 16 -9 0
-10 2 -2 8 6 4 11 33 11 65 0 39 -3 54 -9 45 -6 -9 -7 -5 -3 11 10 33 -4 128
-21 145 -16 16 -19 30 -5 21 6 -3 1 27 -10 67 -11 40 -24 74 -29 76 -5 2 -6
10 -3 19 5 12 3 14 -7 8 -10 -6 -12 -4 -7 8 8 22 -12 79 -25 71 -6 -4 -8 1 -3
15 4 15 2 21 -8 21 -10 0 -13 7 -10 19 2 10 -3 25 -12 35 -9 9 -14 16 -11 16
4 0 -3 18 -14 41 -18 35 -23 39 -37 27 -15 -12 -15 -11 -5 8 10 18 7 28 -14
60 -15 22 -33 43 -40 47 -8 5 -12 12 -9 17 3 5 -5 16 -17 25 -13 8 -21 19 -18
23 3 4 -6 8 -20 10 -19 2 -22 1 -10 -7z m-95 -142 c4 -5 0 -18 -9 -28 -9 -10
-16 -27 -16 -39 0 -11 -5 -24 -11 -28 -8 -5 -10 1 -7 20 6 31 -5 41 -29 27
-14 -8 -14 -10 -3 -11 9 0 6 -6 -10 -17 -17 -12 -25 -13 -28 -5 -2 7 -10 12
-17 12 -7 0 -15 4 -17 8 -1 5 -30 6 -63 3 -64 -7 -95 -4 -95 8 0 4 21 8 48 10
26 1 48 6 50 12 2 5 15 6 28 3 15 -4 34 0 49 10 14 9 25 12 25 7 0 -12 74 -2
78 11 5 11 20 10 27 -3z m122 -11 c-3 -8 -6 -5 -6 6 -1 11 2 17 5 13 3 -3 4
-12 1 -19z m-402 -8 c-3 -5 -13 -10 -21 -10 -8 0 -14 5 -14 10 0 6 9 10 21 10
11 0 17 -4 14 -10z m345 6 c0 -3 -4 -8 -10 -11 -5 -3 -10 -1 -10 4 0 6 5 11
10 11 6 0 10 -2 10 -4z m150 -6 c0 -5 -2 -10 -4 -10 -3 0 -8 5 -11 10 -3 6 -1
10 4 10 6 0 11 -4 11 -10z m-55 -20 c-3 -5 -10 -10 -16 -10 -5 0 -9 5 -9 10 0
6 7 10 16 10 8 0 12 -4 9 -10z m-115 -10 c0 -5 -4 -10 -10 -10 -5 0 -10 5 -10
10 0 6 5 10 10 10 6 0 10 -4 10 -10z m-201 -41 c-8 -5 -27 -9 -44 -10 -29 -1
-30 -1 -5 -9 17 -5 19 -8 8 -9 -34 -2 -18 -21 17 -21 19 0 35 5 35 10 0 6 5
10 10 10 22 0 8 -19 -21 -29 -20 -7 -29 -16 -27 -27 5 -29 -21 -27 -32 2 -13
34 -19 28 -13 -12 4 -28 8 -31 41 -28 21 1 83 2 140 3 60 1 102 5 102 11 0 6
-13 10 -30 10 -16 0 -30 4 -30 9 0 5 23 9 50 9 28 0 50 -4 50 -9 0 -5 -4 -9
-10 -9 -5 0 -10 -5 -10 -10 0 -6 7 -10 16 -8 10 2 19 -2 21 -9 3 -9 -17 -11
-85 -8 l-90 5 -7 -30 c-6 -28 -25 -43 -25 -20 0 6 -5 10 -11 10 -5 0 -8 -4 -4
-9 3 -5 1 -12 -5 -16 -6 -3 -14 4 -19 17 -9 22 -10 22 -10 -6 -1 -24 -3 -27
-16 -16 -10 9 -15 9 -15 1 0 -6 -4 -11 -10 -11 -5 0 -10 7 -10 16 0 13 -4 11
-18 -6 -18 -23 -18 -22 -18 34 0 47 -4 59 -22 72 -12 8 -22 21 -22 27 0 7 4 6
10 -3 5 -8 12 -12 15 -9 9 10 -6 39 -21 39 -8 0 -14 6 -14 14 0 9 9 12 28 10
15 -2 19 -1 10 2 -23 7 -23 22 -1 26 33 6 106 -4 92 -13z m435 -102 c-4 -14
-3 -17 6 -12 8 5 11 4 6 -3 -13 -21 -31 -2 -31 33 0 31 2 33 13 18 6 -9 9 -26
6 -36z m-34 24 c0 -10 -77 -20 -97 -13 -7 2 -10 8 -7 13 7 12 104 12 104 0z
m-360 -5 c0 -2 -9 -6 -20 -9 -11 -3 -18 -1 -14 4 5 9 34 13 34 5z m330 -26 c0
-5 -9 -10 -21 -10 -11 0 -17 5 -14 10 3 6 13 10 21 10 8 0 14 -4 14 -10z
m-210 -39 c0 -6 -4 -13 -10 -16 -5 -3 -10 1 -10 9 0 9 5 16 10 16 6 0 10 -4
10 -9z m237 -17 c-3 -3 -12 -4 -19 -1 -8 3 -5 6 6 6 11 1 17 -2 13 -5z m-70
-45 c-24 -14 -13 -27 18 -21 19 3 23 7 15 17 -8 9 -8 15 0 20 12 7 32 -3 26
-14 -3 -3 11 -17 30 -30 18 -13 31 -27 28 -32 -9 -14 -22 -10 -44 13 -24 26
-30 22 -23 -15 4 -18 10 -26 19 -23 8 3 11 0 7 -10 -8 -21 -26 -12 -41 19 -15
31 -36 37 -27 7 5 -14 2 -20 -9 -20 -26 0 -30 -1 -42 -11 -6 -5 -18 -7 -25 -5
-8 2 -26 7 -41 10 -15 3 -29 15 -33 26 -4 12 -12 17 -22 13 -11 -4 -14 -2 -11
8 3 8 17 14 32 14 15 0 31 6 35 14 7 11 10 9 16 -9 5 -15 10 -19 15 -11 4 7
11 11 16 9 5 -1 22 10 37 26 16 15 31 25 35 21 4 -3 -1 -11 -11 -16z m114 7
c-10 -11 -8 -15 6 -19 15 -4 14 -5 -3 -6 -23 -1 -48 21 -37 32 3 4 15 7 26 7
16 0 17 -3 8 -14z m-331 -18 c0 -11 -78 -10 -85 1 -3 5 14 9 40 8 25 0 45 -5
45 -9z m-154 -25 c-10 -10 -19 5 -10 18 6 11 8 11 12 0 2 -7 1 -15 -2 -18z
m-35 -6 c-10 -9 -11 -8 -5 6 3 10 9 15 12 12 3 -3 0 -11 -7 -18z m135 3 c43 0
44 -15 2 -28 -46 -14 -100 -13 -95 1 2 7 13 13 25 15 12 2 22 11 23 20 0 11 3
12 6 5 2 -7 20 -13 39 -13z m82 -12 c-7 -19 -38 -22 -38 -4 0 10 9 16 21 16
12 0 19 -5 17 -12z m-198 -24 c0 -8 -4 -12 -10 -9 -5 3 -10 10 -10 16 0 5 5 9
10 9 6 0 10 -7 10 -16z m530 -4 c0 -5 -5 -10 -11 -10 -5 0 -7 5 -4 10 3 6 8
10 11 10 2 0 4 -4 4 -10z m-350 -15 c5 3 13 -1 16 -9 3 -9 10 -16 15 -16 14 0
11 28 -3 33 -7 3 -3 6 8 6 19 1 21 -3 15 -31 -6 -27 -13 -33 -55 -45 -38 -11
-51 -12 -56 -2 -4 6 -12 9 -18 5 -21 -13 -90 -18 -97 -7 -3 6 -11 8 -17 5 -6
-4 -9 -1 -6 6 2 8 17 18 34 23 16 6 32 15 36 20 10 16 62 15 75 -2 11 -14 12
-13 13 8 0 19 3 21 15 11 8 -6 19 -9 25 -5z m-184 -17 c4 -7 4 -10 -1 -6 -4 4
-14 3 -22 -3 -8 -8 -13 -8 -13 -1 0 6 6 13 13 15 6 3 13 6 14 6 1 1 5 -5 9
-11z m414 -2 c0 -13 -47 -32 -57 -22 -10 9 9 27 23 22 8 -3 14 -1 14 4 0 6 5
10 10 10 6 0 10 -6 10 -14z m130 0 c0 -11 -19 -15 -25 -6 -3 5 1 10 9 10 9 0
16 -2 16 -4z m-221 -23 c0 -11 -3 -13 -6 -5 -6 16 -44 16 -40 0 1 -7 -8 -14
-20 -16 -13 -2 -23 1 -23 7 0 6 7 11 15 11 8 0 15 5 15 10 0 6 14 10 30 10 22
0 30 -5 29 -17z m230 -22 c11 -7 9 -11 -8 -20 -25 -14 -43 -7 -34 14 6 17 21
19 42 6z m56 -161 c3 -5 -1 -10 -10 -10 -9 0 -13 5 -10 10 3 6 8 10 10 10 2 0
7 -4 10 -10z m-22 -27 c-7 -2 -19 -2 -25 0 -7 3 -2 5 12 5 14 0 19 -2 13 -5z
m-1550 -32 c-6 -22 -29 -35 -38 -21 -7 12 15 39 32 40 6 0 9 -8 6 -19z m1604
-13 c-3 -8 -6 -5 -6 6 -1 11 2 17 5 13 3 -3 4 -12 1 -19z m-1686 -61 c-10 -9
-11 -8 -5 6 3 10 9 15 12 12 3 -3 0 -11 -7 -18z m104 -117 c-3 -5 -16 -10 -28
-9 -20 1 -20 2 3 9 14 4 26 8 28 9 2 1 0 -3 -3 -9z m-22 -77 c18 -11 -8 -24
-36 -18 -63 13 -71 16 -56 26 13 8 73 3 92 -8z m52 7 c3 -5 -3 -10 -14 -10
-12 0 -21 5 -21 10 0 6 6 10 14 10 8 0 18 -4 21 -10z m-15 -34 c0 -3 -4 -8
-10 -11 -5 -3 -10 -1 -10 4 0 6 5 11 10 11 6 0 10 -2 10 -4z m-140 -14 c0 -14
-11 -21 -26 -15 -21 8 -17 23 6 23 11 0 20 -4 20 -8z m64 -23 c-3 -5 -10 -7
-15 -3 -5 3 -7 10 -3 15 3 5 10 7 15 3 5 -3 7 -10 3 -15z m176 -9 c0 -5 -2
-10 -4 -10 -3 0 -8 5 -11 10 -3 6 -1 10 4 10 6 0 11 -4 11 -10z"/>
<path d="M3788 4413 c7 -3 16 -2 19 1 4 3 -2 6 -13 5 -11 0 -14 -3 -6 -6z"/>
<path d="M3688 4233 c7 -3 16 -2 19 1 4 3 -2 6 -13 5 -11 0 -14 -3 -6 -6z"/>
<path d="M3768 4233 c6 -2 18 -2 25 0 6 3 1 5 -13 5 -14 0 -19 -2 -12 -5z"/>
<path d="M3840 4040 c0 -5 4 -10 9 -10 6 0 13 5 16 10 3 6 -1 10 -9 10 -9 0
-16 -4 -16 -10z"/>
<path d="M3885 4600 c-4 -6 -11 -8 -16 -5 -5 4 -9 -1 -9 -9 0 -9 -4 -16 -10
-16 -5 0 -10 -7 -10 -16 0 -13 3 -14 14 -5 7 6 20 9 27 6 10 -4 15 4 16 25 2
31 -1 37 -12 20z"/>
<path d="M3932 4599 c2 -6 8 -10 13 -10 5 0 11 4 13 10 2 6 -4 11 -13 11 -9 0
-15 -5 -13 -11z"/>
<path d="M2585 4110 c-3 -5 3 -10 14 -10 12 0 21 5 21 10 0 6 -6 10 -14 10 -8
0 -18 -4 -21 -10z"/>
<path d="M2263 3733 c9 -2 25 -2 35 0 9 3 1 5 -18 5 -19 0 -27 -2 -17 -5z"/>
<path d="M1656 3676 c-22 -7 -43 -21 -47 -32 -7 -17 -8 -17 -8 -1 -1 19 1 18
-94 21 -55 1 -67 -2 -64 -14 2 -8 9 -14 15 -12 7 1 12 -2 12 -8 0 -5 -5 -10
-11 -10 -5 0 -7 -4 -4 -10 3 -5 15 -10 26 -10 30 0 22 -30 -11 -41 -38 -14
-39 -26 -1 -23 38 2 51 11 51 32 0 13 10 17 40 18 33 1 40 -2 40 -17 0 -11 7
-19 15 -19 9 0 15 9 15 25 0 24 10 32 24 18 11 -11 35 -12 42 -2 3 5 12 9 21
9 11 0 14 -6 10 -21 -5 -19 -4 -19 16 -6 12 9 21 19 20 24 -2 11 35 10 61 -2
18 -8 36 7 36 33 0 14 -146 17 -169 3 -18 -11 -41 -3 -41 14 0 8 8 11 21 8 11
-3 31 0 44 7 13 7 33 10 44 7 12 -3 24 -1 27 4 3 5 -10 9 -30 9 -19 0 -40 2
-48 4 -7 2 -31 -2 -52 -8z m-66 -36 c0 -5 -7 -10 -15 -10 -8 0 -15 5 -15 10 0
6 7 10 15 10 8 0 15 -4 15 -10z"/>
<path d="M1808 3683 c7 -3 16 -2 19 1 4 3 -2 6 -13 5 -11 0 -14 -3 -6 -6z"/>
<path d="M3770 3680 c-8 -5 -28 -10 -45 -10 -44 -1 -14 -14 83 -35 79 -18 107
-16 86 5 -5 5 -22 11 -36 12 -15 1 -25 4 -23 6 7 7 -23 32 -37 32 -7 0 -20 -5
-28 -10z"/>
<path d="M1986 3664 c-4 -10 -14 -14 -26 -11 -14 3 -21 -1 -26 -17 l-8 -21 -5
22 c-5 19 -8 20 -25 8 -21 -16 -15 -52 6 -38 7 4 43 9 81 10 52 2 67 -1 67
-12 0 -7 8 -14 18 -13 9 0 32 -3 50 -7 21 -5 32 -4 32 4 0 6 -7 11 -15 11 -8
0 -15 5 -15 11 0 6 7 8 15 5 8 -3 22 -9 30 -12 12 -5 12 1 -3 34 -15 36 -19
39 -59 40 -30 0 -43 -4 -43 -13 0 -25 -23 -29 -41 -7 -21 26 -25 27 -33 6z"/>
<path d="M2160 3664 c0 -8 5 -12 10 -9 6 3 10 10 10 16 0 5 -4 9 -10 9 -5 0
-10 -7 -10 -16z"/>
<path d="M1326 3628 c9 -32 8 -31 64 -35 39 -2 50 1 50 12 0 17 -41 30 -71 22
-12 -3 -22 0 -26 9 -9 23 -25 16 -17 -8z"/>
<path d="M1245 3626 c3 -11 0 -23 -7 -28 -9 -5 -10 -8 -1 -8 19 0 25 18 13 37
-11 17 -11 16 -5 -1z"/>
<path d="M1270 3625 c0 -15 18 -40 24 -34 3 3 -1 14 -9 25 -8 10 -14 15 -15 9z"/>
<path d="M2015 3590 c3 -5 8 -10 11 -10 2 0 4 5 4 10 0 6 -5 10 -11 10 -5 0
-7 -4 -4 -10z"/>
<path d="M1530 3557 c0 -9 10 -12 30 -9 17 2 30 8 30 13 0 5 -13 9 -30 9 -18
0 -30 -5 -30 -13z"/>
<path d="M1650 3560 c0 -5 5 -10 10 -10 6 0 10 5 10 10 0 6 -4 10 -10 10 -5 0
-10 -4 -10 -10z"/>
<path d="M1680 3548 c0 -17 2 -18 15 -8 8 7 15 14 15 15 0 2 -7 5 -15 9 -10 4
-15 -1 -15 -16z"/>
<path d="M4290 3531 c0 -5 5 -13 10 -16 6 -3 10 -2 10 4 0 5 -4 13 -10 16 -5
3 -10 2 -10 -4z"/>
<path d="M1570 3520 c0 -5 7 -10 15 -10 8 0 15 5 15 10 0 6 -7 10 -15 10 -8 0
-15 -4 -15 -10z"/>
<path d="M2235 3522 c-3 -3 -2 -16 2 -30 3 -14 1 -27 -6 -31 -6 -4 -13 -21
-14 -37 -2 -23 2 -29 18 -29 11 0 20 7 20 15 0 8 17 31 38 52 20 20 37 42 37
50 0 10 -3 9 -10 -2 -5 -8 -10 -10 -10 -4 0 11 -66 25 -75 16z m45 -22 c0 -5
-4 -10 -10 -10 -5 0 -10 5 -10 10 0 6 5 10 10 10 6 0 10 -4 10 -10z"/>
<path d="M2059 3506 c-2 -2 -21 -7 -43 -10 -48 -8 -57 -13 -49 -31 3 -8 0 -15
-6 -15 -6 0 -11 9 -11 20 0 31 -15 24 -28 -14 -11 -30 -18 -35 -55 -39 -23 -3
-71 -2 -107 2 -36 5 -56 9 -45 10 19 1 19 2 2 12 -20 12 -37 4 -37 -17 0 -17
-21 -19 -37 -3 -8 8 -21 8 -47 -1 -20 -6 -56 -10 -81 -9 -25 2 -50 -2 -57 -9
-9 -9 -5 -12 18 -12 17 0 35 -5 41 -11 8 -8 13 -8 17 0 9 14 66 14 66 1 0 -7
6 -7 19 0 32 17 181 21 187 5 10 -25 174 1 174 27 0 6 -13 8 -31 4 -22 -4 -29
-2 -27 7 3 6 18 14 34 15 16 2 33 9 37 15 5 8 7 4 5 -8 -3 -17 4 -20 40 -23
33 -2 42 0 42 12 0 9 6 15 13 14 6 -2 11 5 9 15 -2 11 4 17 18 17 24 0 27 15
4 24 -18 7 -59 8 -65 2z"/>
<path d="M2354 3479 c-3 -6 -1 -16 5 -22 9 -9 14 -8 21 3 5 8 10 18 10 23 0
11 -28 8 -36 -4z"/>
<path d="M2302 3448 c-8 -11 2 -17 49 -32 32 -11 62 -17 65 -13 12 12 -25 37
-53 37 -16 0 -34 5 -39 10 -8 8 -14 7 -22 -2z"/>
<path d="M2499 3456 c-1 -3 -2 -12 -3 -18 -1 -16 -36 -24 -36 -9 0 6 -10 11
-22 10 l-23 0 23 -9 c25 -11 30 -30 7 -30 -8 0 -15 -4 -15 -10 0 -14 4 -13 47
11 52 29 56 34 38 49 -8 7 -16 10 -16 6z"/>
<path d="M2170 3440 c-8 -5 -27 -10 -42 -10 -18 0 -28 -5 -28 -15 0 -19 79
-18 87 1 8 22 0 34 -17 24z"/>
<path d="M1395 3400 c3 -5 11 -10 16 -10 6 0 7 5 4 10 -3 6 -11 10 -16 10 -6
0 -7 -4 -4 -10z"/>
<path d="M2288 3393 c7 -3 16 -2 19 1 4 3 -2 6 -13 5 -11 0 -14 -3 -6 -6z"/>
<path d="M2511 3370 c-9 -5 -5 -9 10 -13 28 -7 31 -6 14 10 -6 6 -18 8 -24 3z"/>
<path d="M2891 3194 c0 -11 3 -14 6 -6 3 7 2 16 -1 19 -3 4 -6 -2 -5 -13z"/>
<path d="M2605 3191 c-3 -5 -1 -12 5 -16 5 -3 10 1 10 9 0 18 -6 21 -15 7z"/>
<path d="M2670 3185 c0 -15 16 -20 53 -17 9 1 17 -3 17 -9 0 -5 5 -7 10 -4 16
10 12 22 -10 28 -11 3 -20 1 -20 -4 0 -5 -4 -9 -10 -9 -5 0 -10 7 -10 15 0 8
-7 15 -15 15 -8 0 -15 -7 -15 -15z"/>
<path d="M1230 3170 c0 -5 5 -10 10 -10 6 0 10 5 10 10 0 6 -4 10 -10 10 -5 0
-10 -4 -10 -10z"/>
<path d="M2715 3133 c-16 -3 -36 -10 -44 -16 -11 -9 -15 -9 -18 1 -3 6 -9 12
-14 12 -6 0 -8 -4 -4 -9 8 -13 -23 -21 -81 -21 -42 1 -59 -1 -106 -9 -21 -3
-4 -19 25 -25 24 -4 33 -11 33 -26 0 -11 -7 -21 -16 -22 -39 -4 -46 -6 -64
-13 -13 -6 -21 -4 -24 3 -5 16 -27 15 -53 0 -17 -10 -23 -10 -26 -1 -3 9 -11
9 -31 1 -41 -16 -178 -37 -203 -31 -24 7 -41 -13 -33 -39 7 -22 -21 -25 -30
-3 -3 8 -13 15 -23 15 -13 0 -14 -3 -5 -12 21 -21 14 -36 -14 -30 -20 3 -25 1
-22 -9 3 -9 18 -13 47 -10 34 2 42 0 35 -11 -5 -8 -1 -7 12 3 11 9 36 15 59
15 22 -1 43 3 46 8 10 13 62 -3 56 -17 -3 -7 3 -13 13 -13 10 0 16 4 14 8 -6
10 28 26 45 20 11 -3 11 -6 0 -12 -19 -12 -22 -50 -4 -50 20 0 19 -16 -1 -24
-27 -10 -36 -7 -29 14 7 23 -13 28 -33 8 -7 -7 -41 -13 -80 -14 -110 -2 -111
-2 -83 -17 14 -6 26 -18 29 -25 6 -20 -49 -3 -72 22 -11 12 -17 15 -14 6 3 -8
2 -24 -3 -35 -7 -19 -8 -19 -8 2 -1 26 -13 35 -36 27 -12 -5 -15 -14 -11 -35
3 -16 1 -31 -4 -34 -6 -3 -10 6 -11 22 l-1 28 -8 -25 c-8 -24 -8 -24 -9 -2 -1
30 -21 28 -21 -3 0 -30 -15 -32 -32 -5 -7 11 -17 20 -22 20 -6 0 -5 -5 2 -12
14 -14 16 -42 2 -33 -5 3 -15 3 -21 -1 -8 -4 -7 -9 2 -15 11 -7 10 -11 -6 -23
-11 -9 -28 -16 -37 -16 -20 0 -20 2 -23 -61 -2 -45 -2 -46 16 -31 23 20 24 38
4 46 -29 11 -16 29 16 22 28 -5 31 -4 26 14 -3 13 0 20 9 20 8 0 14 -9 14 -20
0 -13 6 -20 18 -19 10 0 12 3 5 6 -7 2 -13 9 -13 14 0 12 37 12 45 -1 9 -14
28 -12 22 3 -2 6 -10 11 -16 10 -6 -2 -11 2 -11 7 0 16 26 11 41 -7 40 -50 53
-99 16 -59 -13 14 -27 23 -30 19 -4 -3 -22 -6 -42 -5 -25 1 -33 -2 -29 -13 4
-10 0 -12 -15 -8 -23 6 -28 -6 -9 -25 9 -9 7 -12 -10 -12 -13 0 -42 -10 -65
-21 -37 -19 -40 -20 -27 -4 14 17 13 18 -20 12 -25 -5 -31 -4 -20 3 11 7 11
10 2 10 -7 0 -15 -7 -18 -15 -4 -8 -11 -12 -18 -8 -6 3 -8 3 -5 0 13 -15 130
-86 146 -89 10 -2 23 -8 28 -14 19 -21 191 -83 345 -124 85 -22 187 -49 225
-60 432 -119 731 -138 970 -63 104 33 191 77 329 167 159 104 361 279 351 304
-2 7 -1 11 4 8 10 -7 44 29 47 50 2 12 -1 13 -12 3 -7 -6 -11 -15 -8 -20 3 -5
3 -9 -1 -9 -7 0 -29 50 -30 69 0 7 -10 20 -23 29 -22 14 -23 14 -29 -7 -5 -21
-6 -21 -19 -3 -7 11 -24 22 -36 24 -13 3 -30 9 -39 12 -10 4 -24 0 -34 -11
-18 -17 -18 -17 -11 11 6 23 4 27 -8 23 -9 -4 -17 1 -19 11 -4 16 -5 15 -6 0
-1 -25 -21 -23 -21 2 0 11 -3 19 -7 19 -5 -1 -16 -1 -27 0 -15 1 -16 4 -6 16
15 18 7 19 -22 4 -15 -8 -22 -8 -28 0 -3 7 -20 13 -36 14 -16 1 -35 8 -43 15
-11 11 -15 11 -22 1 -5 -9 -12 -10 -21 -3 -12 9 -76 27 -134 38 -12 3 -41 14
-65 26 -34 18 -47 20 -61 11 -10 -6 -29 -11 -43 -11 -14 0 -25 -5 -25 -11 0
-14 26 -39 41 -39 6 0 17 -7 24 -16 9 -13 16 -14 32 -6 17 10 25 6 51 -23 17
-19 37 -35 45 -35 8 0 17 -9 20 -21 6 -23 27 -17 27 8 0 14 4 12 21 -6 11 -12
18 -29 15 -37 -3 -7 -1 -14 4 -14 6 0 10 -5 10 -11 0 -6 -7 -9 -15 -5 -8 3
-15 0 -15 -5 0 -7 -10 -9 -27 -5 -97 24 -118 25 -133 7 -17 -20 -46 -14 -69
13 -7 9 -19 16 -26 16 -8 0 -15 5 -17 12 -3 8 -6 7 -10 -4 -4 -10 8 -29 33
-54 22 -22 41 -53 45 -72 4 -22 16 -37 34 -47 26 -13 46 -42 36 -52 -2 -3 -7
5 -11 16 -4 13 -11 18 -22 14 -9 -4 -19 1 -25 10 -5 10 -17 17 -27 17 -11 0
-22 7 -25 16 -7 19 2 37 15 29 5 -3 6 1 3 9 -6 14 -81 51 -98 47 -4 -1 -14 4
-22 10 -11 9 -14 8 -14 -4 0 -9 10 -22 23 -28 24 -13 57 -47 57 -59 0 -4 -7
-13 -15 -20 -8 -7 -15 -9 -15 -4 0 4 -6 -1 -14 -12 -8 -10 -12 -29 -9 -41 3
-15 1 -23 -8 -24 -8 -1 -3 -5 11 -9 21 -7 18 -8 -18 -9 -24 -1 -41 3 -38 8 4
5 -4 7 -15 4 -21 -6 -21 -6 2 -24 13 -10 18 -19 12 -19 -7 0 -13 -9 -13 -20 0
-10 -9 -24 -20 -30 -11 -6 -18 -15 -15 -19 6 -11 107 -24 165 -22 38 1 42 0
26 -10 -16 -10 -133 -7 -221 5 -11 2 -14 1 -7 -1 7 -3 10 -8 7 -12 -2 -5 7 -6
22 -3 18 3 24 1 19 -7 -7 -10 5 -15 30 -12 7 1 14 -7 16 -17 5 -17 -1 -19 -56
-17 -74 2 -165 28 -195 56 -19 18 -21 27 -15 72 4 29 11 59 15 69 10 19 28
181 30 276 2 67 -2 220 -7 253 -5 34 -9 38 -47 47 -23 6 -54 8 -69 5 -17 -3
-28 -1 -28 6 0 6 -3 10 -7 10 -5 -1 -21 -4 -38 -6z m2 -19 c-3 -3 -12 -4 -19
-1 -8 3 -5 6 6 6 11 1 17 -2 13 -5z m-148 -55 c-7 -4 -17 -5 -22 -2 -5 3 -3 9
4 14 7 4 17 5 22 2 5 -3 3 -9 -4 -14z m81 5 c0 -8 -5 -12 -10 -9 -6 4 -8 11
-5 16 9 14 15 11 15 -7z m-552 -122 c6 -18 -15 -14 -22 4 -4 10 -1 14 6 12 6
-2 14 -10 16 -16z m397 -2 c4 -6 -7 -10 -27 -9 -31 1 -32 1 -8 9 14 4 26 8 27
9 1 1 5 -3 8 -9z m-205 -14 c0 -2 -7 -6 -15 -10 -8 -3 -15 -1 -15 4 0 6 7 10
15 10 8 0 15 -2 15 -4z m65 -36 c3 -32 -20 -17 -23 16 -3 23 -1 27 9 17 7 -7
13 -22 14 -33z m45 30 c0 -5 -7 -10 -16 -10 -8 0 -12 5 -9 10 3 6 10 10 16 10
5 0 9 -4 9 -10z m37 -6 c-3 -3 -12 -4 -19 -1 -8 3 -5 6 6 6 11 1 17 -2 13 -5z
m-127 -43 c0 -17 -18 -21 -24 -6 -3 9 0 15 9 15 8 0 15 -4 15 -9z m130 -5 c0
-8 -4 -18 -10 -21 -5 -3 -10 -4 -10 -1 0 2 -3 11 -6 20 -4 11 -1 16 10 16 9 0
16 -6 16 -14z m-460 -75 c0 -6 -4 -13 -10 -16 -5 -3 -10 1 -10 9 0 9 5 16 10
16 6 0 10 -4 10 -9z m890 -31 c0 -5 -5 -10 -11 -10 -5 0 -7 5 -4 10 3 6 8 10
11 10 2 0 4 -4 4 -10z m-903 -32 c-3 -8 -6 -5 -6 6 -1 11 2 17 5 13 3 -3 4
-12 1 -19z m821 -50 c-35 -35 -69 -75 -77 -90 -8 -15 -19 -24 -24 -21 -6 4 -8
0 -4 -10 6 -16 -28 -45 -40 -33 -9 8 6 53 22 70 8 8 15 19 15 24 0 5 14 28 31
51 31 43 75 70 117 71 19 0 12 -10 -40 -62z m-920 23 c10 -6 9 -10 -7 -14 -14
-3 -21 0 -21 9 0 16 9 18 28 5z m362 -26 c0 -19 -4 -35 -9 -35 -7 0 -8 53 -2
68 5 12 11 -5 11 -33z m-183 -20 c-4 -8 -12 -15 -19 -14 -10 0 -10 2 0 6 6 2
12 12 12 21 0 8 3 13 6 9 4 -3 4 -13 1 -22z m1313 -65 c0 -5 -7 -10 -16 -10
-8 0 -12 5 -9 10 3 6 10 10 16 10 5 0 9 -4 9 -10z m585 1 c-16 -14 -55 -23
-55 -12 0 8 16 14 55 20 5 0 5 -2 0 -8z m-80 -11 c-3 -5 -20 -10 -36 -10 -18
0 -28 4 -24 10 3 6 20 10 36 10 18 0 28 -4 24 -10z m-1562 -17 c-7 -2 -19 -2
-25 0 -7 3 -2 5 12 5 14 0 19 -2 13 -5z m930 -10 c-4 -10 -9 -11 -19 -2 -18
15 -18 15 5 15 11 0 17 -5 14 -13z m-603 -68 c-7 -8 -16 -15 -21 -15 -5 0 -1
9 8 20 9 11 19 17 21 15 3 -3 -1 -11 -8 -20z m30 -2 c0 -15 -35 -43 -54 -42
l-21 0 21 9 c12 4 24 15 27 24 6 16 27 23 27 9z m-816 -31 c3 -5 -1 -9 -9 -9
-8 0 -12 4 -9 9 3 4 7 8 9 8 2 0 6 -4 9 -8z m234 -34 c-5 -15 -48 -24 -48 -10
0 14 12 22 33 22 10 0 17 -5 15 -12z m532 2 c0 -5 -7 -10 -15 -10 -8 0 -15 5
-15 10 0 6 7 10 15 10 8 0 15 -4 15 -10z"/>
<path d="M3340 3130 c0 -5 5 -10 10 -10 6 0 10 -6 10 -12 0 -22 128 -98 163
-98 10 0 27 -5 38 -10 14 -8 19 -7 19 3 0 16 -32 47 -48 47 -7 0 -12 5 -12 10
0 6 -8 10 -19 10 -10 0 -30 9 -43 20 -14 10 -28 17 -31 14 -3 -4 -19 3 -35 15
-32 23 -52 27 -52 11z"/>
<path d="M2320 3089 c0 -5 -9 -9 -19 -9 -11 0 -23 -5 -26 -11 -5 -7 13 -8 57
-3 34 4 71 8 81 8 21 0 22 12 2 20 -8 3 -15 2 -15 -3 0 -5 -18 -5 -40 -1 -22
4 -40 3 -40 -1z"/>
<path d="M2070 3071 c0 -9 41 -23 48 -16 2 2 1 8 -3 14 -8 13 -45 15 -45 2z"/>
<path d="M2465 3040 c3 -5 11 -10 16 -10 6 0 7 5 4 10 -3 6 -11 10 -16 10 -6
0 -7 -4 -4 -10z"/>
<path d="M1790 2901 c0 -6 4 -13 10 -16 6 -3 7 1 4 9 -7 18 -14 21 -14 7z"/>
<path d="M1893 2898 c2 -7 12 -13 22 -13 10 0 20 6 23 13 2 7 -6 12 -23 12
-17 0 -25 -5 -22 -12z"/>
<path d="M1835 2890 c-3 -5 1 -10 10 -10 9 0 13 5 10 10 -3 6 -8 10 -10 10 -2
0 -7 -4 -10 -10z"/>
<path d="M3185 2840 c3 -5 8 -10 11 -10 2 0 4 5 4 10 0 6 -5 10 -11 10 -5 0
-7 -4 -4 -10z"/>
<path d="M4090 2791 c0 -7 -4 -9 -10 -6 -5 3 -10 1 -10 -4 0 -6 4 -11 9 -11
13 0 25 20 17 27 -3 4 -6 1 -6 -6z"/>
<path d="M1496 2701 c-3 -4 2 -17 10 -27 9 -10 12 -13 8 -5 -3 7 -1 17 6 21 8
5 8 9 -4 13 -8 3 -18 2 -20 -2z"/>
<path d="M1643 2673 c-18 -7 -16 -23 2 -23 8 0 15 5 15 11 0 6 9 8 21 4 15 -5
19 -4 15 4 -7 11 -31 13 -53 4z"/>
<path d="M1711 2656 c-7 -8 -8 -17 -3 -19 4 -3 13 3 20 14 14 22 0 26 -17 5z"/>
<path d="M1653 2619 c-19 -6 -33 -16 -33 -25 0 -9 -6 -14 -12 -11 -7 2 -13 9
-13 15 0 7 -3 12 -7 12 -5 0 -13 0 -20 0 -6 0 -1 -9 12 -20 24 -21 39 -23 80
-10 16 5 19 8 8 9 -9 1 -20 6 -24 12 -5 8 1 10 20 7 18 -4 26 -1 26 8 0 8 -1
14 -2 13 -2 0 -18 -5 -35 -10z"/>
<path d="M1717 2599 c-4 -16 -3 -18 9 -8 16 13 19 29 5 29 -5 0 -11 -9 -14
-21z"/>
</g>
</svg>
